<svg viewBox="0 0 480 300" xmlns="http://www.w3.org/2000/svg">
  <rect width="480" height="300" fill="var(--svg-bg)"/>
  <g stroke="var(--svg-line)" stroke-width="1">
    <line x1="0" y1="75" x2="480" y2="75"/>
    <line x1="0" y1="150" x2="480" y2="150"/>
    <line x1="0" y1="225" x2="480" y2="225"/>
    <line x1="120" y1="0" x2="120" y2="300"/>
    <line x1="240" y1="0" x2="240" y2="300"/>
    <line x1="360" y1="0" x2="360" y2="300"/>
  </g>
  <g fill="none" stroke="var(--teal)" stroke-width="2">
    <rect x="60" y="55" width="70" height="46" rx="4"/>
    <rect x="200" y="130" width="70" height="46" rx="4"/>
    <rect x="340" y="55" width="70" height="46" rx="4"/>
    <rect x="200" y="210" width="70" height="46" rx="4"/>
  </g>
  <g stroke="var(--copper)" stroke-width="2" fill="none">
    <path d="M130 78 L200 78 L200 153"/>
    <path d="M340 78 L270 78 L270 153"/>
    <path d="M235 176 L235 210"/>
  </g>
  <circle cx="235" cy="153" r="5" fill="var(--copper)"/>
  <circle cx="95" cy="78" r="3" fill="var(--teal)"/>
  <circle cx="375" cy="78" r="3" fill="var(--teal)"/>
  <circle cx="235" cy="233" r="3" fill="var(--teal)"/>
</svg>
